<svg width="256" height="256" viewBox="0 0 256 256" fill="none" xmlns="http://www.w3.org/2000/svg">
<path d="M128 21.3335C113.992 21.3335 100.122 24.0925 87.1805 29.453C74.2391 34.8135 62.4802 42.6705 52.5753 52.5754C32.5714 72.5793 21.3334 99.7104 21.3334 128C21.3334 175.147 51.9467 215.147 94.2934 229.333C99.6267 230.187 101.333 226.88 101.333 224V205.973C71.7867 212.373 65.4934 191.68 65.4934 191.68C60.5867 179.307 53.6534 176 53.6534 176C43.9467 169.387 54.4 169.6 54.4 169.6C65.0667 170.347 70.72 180.587 70.72 180.587C80 196.8 95.68 192 101.76 189.44C102.72 182.507 105.493 177.814 108.48 175.147C84.8 172.48 59.9467 163.307 59.9467 122.667C59.9467 110.827 64 101.333 70.9334 93.7602C69.8667 91.0935 66.1334 80.0002 72 65.6002C72 65.6002 80.96 62.7202 101.333 76.4802C109.76 74.1335 118.933 72.9602 128 72.9602C137.067 72.9602 146.24 74.1335 154.667 76.4802C175.04 62.7202 184 65.6002 184 65.6002C189.867 80.0002 186.133 91.0935 185.067 93.7602C192 101.333 196.053 110.827 196.053 122.667C196.053 163.413 171.093 172.374 147.307 175.04C151.147 178.347 154.667 184.854 154.667 194.773V224C154.667 226.88 156.373 230.294 161.813 229.333C204.16 215.04 234.667 175.147 234.667 128C234.667 113.993 231.908 100.122 226.547 87.1806C221.187 74.2392 213.33 62.4804 203.425 52.5754C193.52 42.6705 181.761 34.8135 168.82 29.453C155.878 24.0925 142.008 21.3335 128 21.3335Z" fill="black"/>
</svg>
