<svg width="752" height="507" viewBox="0 0 752 507" fill="none" xmlns="http://www.w3.org/2000/svg">
<rect width="752" height="507" rx="15" fill="white"/>
<rect x="61" y="203" width="630" height="101" rx="47" fill="white" stroke="#1A73E8" stroke-width="2"/>
<path d="M83.2102 254.438V261H81.5341V246.455H83.2102V251.795H83.3523C83.608 251.232 83.9915 250.785 84.5028 250.453C85.0189 250.117 85.7055 249.949 86.5625 249.949C87.3059 249.949 87.9569 250.098 88.5156 250.396C89.0743 250.69 89.5076 251.142 89.8153 251.753C90.1278 252.359 90.2841 253.131 90.2841 254.068V261H88.608V254.182C88.608 253.315 88.383 252.645 87.9332 252.172C87.4882 251.694 86.8703 251.455 86.0795 251.455C85.5303 251.455 85.0379 251.571 84.6023 251.803C84.1714 252.035 83.8305 252.373 83.5795 252.818C83.3333 253.263 83.2102 253.803 83.2102 254.438ZM98.0948 250.091V251.511H92.4414V250.091H98.0948ZM94.0891 247.477H95.7653V257.875C95.7653 258.348 95.8339 258.704 95.9712 258.94C96.1133 259.172 96.2932 259.329 96.511 259.409C96.7335 259.485 96.9679 259.523 97.2141 259.523C97.3988 259.523 97.5503 259.513 97.6687 259.494C97.7871 259.471 97.8817 259.452 97.9528 259.438L98.2937 260.943C98.18 260.986 98.0214 261.028 97.8178 261.071C97.6142 261.118 97.3562 261.142 97.0437 261.142C96.5702 261.142 96.1062 261.04 95.6516 260.837C95.2018 260.633 94.8278 260.323 94.5295 259.906C94.2359 259.49 94.0891 258.964 94.0891 258.33V247.477ZM105.36 250.091V251.511H99.707V250.091H105.36ZM101.355 247.477H103.031V257.875C103.031 258.348 103.1 258.704 103.237 258.94C103.379 259.172 103.559 259.329 103.777 259.409C103.999 259.485 104.234 259.523 104.48 259.523C104.664 259.523 104.816 259.513 104.934 259.494C105.053 259.471 105.147 259.452 105.218 259.438L105.559 260.943C105.446 260.986 105.287 261.028 105.083 261.071C104.88 261.118 104.622 261.142 104.309 261.142C103.836 261.142 103.372 261.04 102.917 260.837C102.467 260.633 102.093 260.323 101.795 259.906C101.502 259.49 101.355 258.964 101.355 258.33V247.477ZM107.882 265.091V250.091H109.501V251.824H109.7C109.823 251.634 109.993 251.393 110.211 251.099C110.434 250.801 110.751 250.536 111.163 250.304C111.58 250.067 112.143 249.949 112.853 249.949C113.772 249.949 114.582 250.179 115.282 250.638C115.983 251.097 116.53 251.748 116.923 252.591C117.316 253.434 117.512 254.428 117.512 255.574C117.512 256.729 117.316 257.731 116.923 258.578C116.53 259.421 115.985 260.074 115.289 260.538C114.593 260.998 113.791 261.227 112.882 261.227C112.181 261.227 111.62 261.111 111.199 260.879C110.777 260.643 110.453 260.375 110.225 260.077C109.998 259.774 109.823 259.523 109.7 259.324H109.558V265.091H107.882ZM109.529 255.545C109.529 256.369 109.65 257.096 109.892 257.726C110.133 258.351 110.486 258.841 110.95 259.196C111.414 259.546 111.982 259.722 112.654 259.722C113.355 259.722 113.94 259.537 114.409 259.168C114.882 258.794 115.237 258.292 115.474 257.662C115.716 257.027 115.836 256.322 115.836 255.545C115.836 254.778 115.718 254.087 115.481 253.472C115.249 252.851 114.896 252.361 114.423 252.001C113.954 251.637 113.365 251.455 112.654 251.455C111.973 251.455 111.4 251.627 110.936 251.973C110.472 252.314 110.121 252.792 109.885 253.408C109.648 254.018 109.529 254.731 109.529 255.545ZM127.797 252.534L126.291 252.96C126.196 252.709 126.056 252.465 125.872 252.229C125.692 251.987 125.446 251.788 125.133 251.632C124.821 251.476 124.421 251.398 123.933 251.398C123.265 251.398 122.709 251.552 122.264 251.859C121.824 252.162 121.603 252.548 121.603 253.017C121.603 253.434 121.755 253.763 122.058 254.004C122.361 254.246 122.834 254.447 123.478 254.608L125.098 255.006C126.073 255.242 126.8 255.605 127.278 256.092C127.756 256.575 127.995 257.198 127.995 257.96C127.995 258.585 127.815 259.144 127.456 259.636C127.1 260.129 126.603 260.517 125.964 260.801C125.325 261.085 124.582 261.227 123.734 261.227C122.621 261.227 121.7 260.986 120.971 260.503C120.242 260.02 119.78 259.314 119.586 258.386L121.177 257.989C121.329 258.576 121.615 259.016 122.037 259.31C122.463 259.603 123.019 259.75 123.706 259.75C124.487 259.75 125.107 259.584 125.566 259.253C126.03 258.917 126.262 258.514 126.262 258.045C126.262 257.667 126.13 257.349 125.865 257.094C125.6 256.833 125.192 256.639 124.643 256.511L122.825 256.085C121.826 255.848 121.092 255.482 120.623 254.984C120.159 254.482 119.927 253.855 119.927 253.102C119.927 252.487 120.1 251.942 120.446 251.469C120.796 250.995 121.272 250.624 121.873 250.354C122.479 250.084 123.166 249.949 123.933 249.949C125.012 249.949 125.86 250.186 126.475 250.659C127.096 251.133 127.536 251.758 127.797 252.534ZM131.74 261.114C131.39 261.114 131.089 260.988 130.838 260.737C130.587 260.486 130.462 260.186 130.462 259.835C130.462 259.485 130.587 259.184 130.838 258.933C131.089 258.682 131.39 258.557 131.74 258.557C132.09 258.557 132.391 258.682 132.642 258.933C132.893 259.184 133.018 259.485 133.018 259.835C133.018 260.067 132.959 260.28 132.841 260.474C132.727 260.669 132.573 260.825 132.379 260.943C132.19 261.057 131.977 261.114 131.74 261.114ZM131.74 253.017C131.39 253.017 131.089 252.892 130.838 252.641C130.587 252.39 130.462 252.089 130.462 251.739C130.462 251.388 130.587 251.088 130.838 250.837C131.089 250.586 131.39 250.46 131.74 250.46C132.09 250.46 132.391 250.586 132.642 250.837C132.893 251.088 133.018 251.388 133.018 251.739C133.018 251.971 132.959 252.184 132.841 252.378C132.727 252.572 132.573 252.728 132.379 252.847C132.19 252.96 131.977 253.017 131.74 253.017ZM141.168 245.773L136.481 263.188H134.947L139.634 245.773H141.168ZM143.155 265.091V250.091H144.775V251.824H144.973C145.096 251.634 145.267 251.393 145.485 251.099C145.707 250.801 146.025 250.536 146.436 250.304C146.853 250.067 147.417 249.949 148.127 249.949C149.045 249.949 149.855 250.179 150.556 250.638C151.257 251.097 151.803 251.748 152.196 252.591C152.589 253.434 152.786 254.428 152.786 255.574C152.786 256.729 152.589 257.731 152.196 258.578C151.803 259.421 151.259 260.074 150.563 260.538C149.867 260.998 149.064 261.227 148.155 261.227C147.454 261.227 146.893 261.111 146.472 260.879C146.051 260.643 145.726 260.375 145.499 260.077C145.272 259.774 145.096 259.523 144.973 259.324H144.831V265.091H143.155ZM144.803 255.545C144.803 256.369 144.924 257.096 145.165 257.726C145.407 258.351 145.759 258.841 146.223 259.196C146.687 259.546 147.256 259.722 147.928 259.722C148.629 259.722 149.213 259.537 149.682 259.168C150.156 258.794 150.511 258.292 150.748 257.662C150.989 257.027 151.11 256.322 151.11 255.545C151.11 254.778 150.991 254.087 150.755 253.472C150.523 252.851 150.17 252.361 149.696 252.001C149.228 251.637 148.638 251.455 147.928 251.455C147.246 251.455 146.673 251.627 146.209 251.973C145.745 252.314 145.395 252.792 145.158 253.408C144.921 254.018 144.803 254.731 144.803 255.545ZM157.019 246.455V261H155.343V246.455H157.019ZM163.299 261.256C162.608 261.256 161.98 261.125 161.417 260.865C160.853 260.6 160.406 260.219 160.075 259.722C159.743 259.22 159.577 258.614 159.577 257.903C159.577 257.278 159.701 256.772 159.947 256.384C160.193 255.991 160.522 255.683 160.934 255.46C161.346 255.238 161.8 255.072 162.298 254.963C162.799 254.849 163.304 254.759 163.81 254.693C164.473 254.608 165.011 254.544 165.423 254.501C165.839 254.454 166.142 254.376 166.332 254.267C166.526 254.158 166.623 253.969 166.623 253.699V253.642C166.623 252.941 166.431 252.397 166.048 252.009C165.669 251.62 165.094 251.426 164.322 251.426C163.522 251.426 162.894 251.601 162.44 251.952C161.985 252.302 161.665 252.676 161.481 253.074L159.89 252.506C160.174 251.843 160.553 251.327 161.026 250.957C161.504 250.583 162.025 250.323 162.589 250.176C163.157 250.025 163.716 249.949 164.265 249.949C164.615 249.949 165.018 249.991 165.472 250.077C165.932 250.157 166.374 250.325 166.8 250.581C167.231 250.837 167.589 251.223 167.873 251.739C168.157 252.255 168.299 252.946 168.299 253.812V261H166.623V259.523H166.538C166.424 259.759 166.235 260.013 165.969 260.283C165.704 260.553 165.352 260.782 164.911 260.972C164.471 261.161 163.933 261.256 163.299 261.256ZM163.555 259.75C164.218 259.75 164.776 259.62 165.231 259.359C165.69 259.099 166.036 258.763 166.268 258.351C166.504 257.939 166.623 257.506 166.623 257.051V255.517C166.552 255.602 166.396 255.68 166.154 255.751C165.917 255.818 165.643 255.877 165.33 255.929C165.022 255.976 164.722 256.019 164.428 256.057C164.139 256.09 163.905 256.118 163.725 256.142C163.29 256.199 162.882 256.291 162.504 256.419C162.129 256.542 161.826 256.729 161.594 256.98C161.367 257.226 161.254 257.562 161.254 257.989C161.254 258.571 161.469 259.011 161.9 259.31C162.335 259.603 162.887 259.75 163.555 259.75ZM175.79 261.227C174.767 261.227 173.887 260.986 173.148 260.503C172.409 260.02 171.841 259.355 171.444 258.507C171.046 257.66 170.847 256.691 170.847 255.602C170.847 254.494 171.051 253.517 171.458 252.669C171.87 251.817 172.443 251.152 173.176 250.673C173.915 250.19 174.777 249.949 175.762 249.949C176.529 249.949 177.22 250.091 177.836 250.375C178.451 250.659 178.955 251.057 179.348 251.568C179.741 252.08 179.985 252.676 180.08 253.358H178.404C178.276 252.861 177.992 252.42 177.551 252.037C177.116 251.649 176.529 251.455 175.79 251.455C175.137 251.455 174.564 251.625 174.071 251.966C173.584 252.302 173.203 252.778 172.928 253.393C172.658 254.004 172.523 254.722 172.523 255.545C172.523 256.388 172.656 257.122 172.921 257.747C173.191 258.372 173.569 258.857 174.057 259.203C174.55 259.549 175.127 259.722 175.79 259.722C176.226 259.722 176.621 259.646 176.976 259.494C177.331 259.343 177.632 259.125 177.878 258.841C178.124 258.557 178.3 258.216 178.404 257.818H180.08C179.985 258.462 179.751 259.042 179.377 259.558C179.007 260.07 178.517 260.477 177.907 260.78C177.301 261.078 176.595 261.227 175.79 261.227ZM187.104 261.227C186.053 261.227 185.146 260.995 184.384 260.531C183.626 260.062 183.042 259.409 182.63 258.571C182.222 257.728 182.019 256.748 182.019 255.631C182.019 254.513 182.222 253.528 182.63 252.676C183.042 251.819 183.614 251.152 184.348 250.673C185.087 250.19 185.949 249.949 186.934 249.949C187.502 249.949 188.063 250.044 188.617 250.233C189.171 250.422 189.675 250.73 190.13 251.156C190.584 251.578 190.946 252.136 191.216 252.832C191.486 253.528 191.621 254.385 191.621 255.403V256.114H183.212V254.665H189.917C189.917 254.049 189.793 253.5 189.547 253.017C189.306 252.534 188.96 252.153 188.51 251.874C188.065 251.594 187.54 251.455 186.934 251.455C186.266 251.455 185.688 251.62 185.201 251.952C184.718 252.278 184.346 252.705 184.086 253.23C183.825 253.756 183.695 254.319 183.695 254.92V255.886C183.695 256.71 183.837 257.409 184.121 257.982C184.41 258.55 184.81 258.983 185.321 259.281C185.833 259.575 186.427 259.722 187.104 259.722C187.544 259.722 187.942 259.66 188.297 259.537C188.657 259.409 188.967 259.22 189.228 258.969C189.488 258.713 189.689 258.396 189.831 258.017L191.451 258.472C191.28 259.021 190.994 259.504 190.591 259.92C190.189 260.332 189.692 260.654 189.1 260.886C188.508 261.114 187.843 261.227 187.104 261.227ZM195.392 261.114C195.042 261.114 194.741 260.988 194.49 260.737C194.239 260.486 194.114 260.186 194.114 259.835C194.114 259.485 194.239 259.184 194.49 258.933C194.741 258.682 195.042 258.557 195.392 258.557C195.743 258.557 196.043 258.682 196.294 258.933C196.545 259.184 196.671 259.485 196.671 259.835C196.671 260.067 196.612 260.28 196.493 260.474C196.38 260.669 196.226 260.825 196.032 260.943C195.842 261.057 195.629 261.114 195.392 261.114ZM204.11 261.227C203.088 261.227 202.207 260.986 201.468 260.503C200.73 260.02 200.162 259.355 199.764 258.507C199.366 257.66 199.167 256.691 199.167 255.602C199.167 254.494 199.371 253.517 199.778 252.669C200.19 251.817 200.763 251.152 201.497 250.673C202.235 250.19 203.097 249.949 204.082 249.949C204.849 249.949 205.54 250.091 206.156 250.375C206.771 250.659 207.276 251.057 207.669 251.568C208.062 252.08 208.306 252.676 208.4 253.358H206.724C206.596 252.861 206.312 252.42 205.872 252.037C205.436 251.649 204.849 251.455 204.11 251.455C203.457 251.455 202.884 251.625 202.392 251.966C201.904 252.302 201.523 252.778 201.248 253.393C200.978 254.004 200.843 254.722 200.843 255.545C200.843 256.388 200.976 257.122 201.241 257.747C201.511 258.372 201.89 258.857 202.377 259.203C202.87 259.549 203.448 259.722 204.11 259.722C204.546 259.722 204.941 259.646 205.297 259.494C205.652 259.343 205.952 259.125 206.199 258.841C206.445 258.557 206.62 258.216 206.724 257.818H208.4C208.306 258.462 208.071 259.042 207.697 259.558C207.328 260.07 206.838 260.477 206.227 260.78C205.621 261.078 204.915 261.227 204.11 261.227ZM215.282 261.227C214.297 261.227 213.433 260.993 212.69 260.524C211.951 260.055 211.374 259.4 210.957 258.557C210.545 257.714 210.339 256.729 210.339 255.602C210.339 254.466 210.545 253.474 210.957 252.626C211.374 251.779 211.951 251.121 212.69 250.652C213.433 250.183 214.297 249.949 215.282 249.949C216.267 249.949 217.129 250.183 217.868 250.652C218.611 251.121 219.189 251.779 219.6 252.626C220.017 253.474 220.225 254.466 220.225 255.602C220.225 256.729 220.017 257.714 219.6 258.557C219.189 259.4 218.611 260.055 217.868 260.524C217.129 260.993 216.267 261.227 215.282 261.227ZM215.282 259.722C216.03 259.722 216.646 259.53 217.129 259.146C217.612 258.763 217.969 258.259 218.201 257.634C218.433 257.009 218.549 256.331 218.549 255.602C218.549 254.873 218.433 254.194 218.201 253.564C217.969 252.934 217.612 252.425 217.129 252.037C216.646 251.649 216.03 251.455 215.282 251.455C214.534 251.455 213.919 251.649 213.436 252.037C212.953 252.425 212.595 252.934 212.363 253.564C212.131 254.194 212.015 254.873 212.015 255.602C212.015 256.331 212.131 257.009 212.363 257.634C212.595 258.259 212.953 258.763 213.436 259.146C213.919 259.53 214.534 259.722 215.282 259.722ZM222.784 261V250.091H224.403V251.795H224.545C224.773 251.213 225.14 250.761 225.646 250.439C226.153 250.112 226.761 249.949 227.472 249.949C228.191 249.949 228.79 250.112 229.268 250.439C229.751 250.761 230.128 251.213 230.398 251.795H230.511C230.791 251.232 231.21 250.785 231.768 250.453C232.327 250.117 232.997 249.949 233.778 249.949C234.754 249.949 235.552 250.254 236.172 250.865C236.792 251.471 237.102 252.416 237.102 253.699V261H235.426V253.699C235.426 252.894 235.206 252.319 234.766 251.973C234.325 251.627 233.807 251.455 233.21 251.455C232.443 251.455 231.849 251.687 231.428 252.151C231.006 252.61 230.795 253.192 230.795 253.898V261H229.091V253.528C229.091 252.908 228.89 252.409 228.487 252.03C228.085 251.646 227.566 251.455 226.932 251.455C226.496 251.455 226.089 251.571 225.71 251.803C225.336 252.035 225.033 252.357 224.801 252.768C224.574 253.176 224.46 253.647 224.46 254.182V261H222.784ZM245.309 245.773L240.621 263.188H239.087L243.775 245.773H245.309ZM247.523 261V246.455H249.199V251.824H249.341C249.464 251.634 249.635 251.393 249.853 251.099C250.075 250.801 250.392 250.536 250.804 250.304C251.221 250.067 251.784 249.949 252.495 249.949C253.413 249.949 254.223 250.179 254.924 250.638C255.624 251.097 256.171 251.748 256.564 252.591C256.957 253.434 257.154 254.428 257.154 255.574C257.154 256.729 256.957 257.731 256.564 258.578C256.171 259.421 255.627 260.074 254.931 260.538C254.235 260.998 253.432 261.227 252.523 261.227C251.822 261.227 251.261 261.111 250.84 260.879C250.418 260.643 250.094 260.375 249.867 260.077C249.64 259.774 249.464 259.523 249.341 259.324H249.142V261H247.523ZM249.171 255.545C249.171 256.369 249.292 257.096 249.533 257.726C249.775 258.351 250.127 258.841 250.591 259.196C251.055 259.546 251.623 259.722 252.296 259.722C252.997 259.722 253.581 259.537 254.05 259.168C254.524 258.794 254.879 258.292 255.115 257.662C255.357 257.027 255.478 256.322 255.478 255.545C255.478 254.778 255.359 254.087 255.123 253.472C254.891 252.851 254.538 252.361 254.064 252.001C253.596 251.637 253.006 251.455 252.296 251.455C251.614 251.455 251.041 251.627 250.577 251.973C250.113 252.314 249.763 252.792 249.526 253.408C249.289 254.018 249.171 254.731 249.171 255.545ZM264.292 261.227C263.24 261.227 262.334 260.995 261.571 260.531C260.814 260.062 260.229 259.409 259.817 258.571C259.41 257.728 259.206 256.748 259.206 255.631C259.206 254.513 259.41 253.528 259.817 252.676C260.229 251.819 260.802 251.152 261.536 250.673C262.275 250.19 263.136 249.949 264.121 249.949C264.689 249.949 265.25 250.044 265.804 250.233C266.358 250.422 266.863 250.73 267.317 251.156C267.772 251.578 268.134 252.136 268.404 252.832C268.674 253.528 268.809 254.385 268.809 255.403V256.114H260.4V254.665H267.104C267.104 254.049 266.981 253.5 266.735 253.017C266.493 252.534 266.148 252.153 265.698 251.874C265.253 251.594 264.727 251.455 264.121 251.455C263.453 251.455 262.876 251.62 262.388 251.952C261.905 252.278 261.533 252.705 261.273 253.23C261.013 253.756 260.882 254.319 260.882 254.92V255.886C260.882 256.71 261.025 257.409 261.309 257.982C261.597 258.55 261.998 258.983 262.509 259.281C263.02 259.575 263.614 259.722 264.292 259.722C264.732 259.722 265.13 259.66 265.485 259.537C265.845 259.409 266.155 259.22 266.415 258.969C266.676 258.713 266.877 258.396 267.019 258.017L268.638 258.472C268.468 259.021 268.181 259.504 267.779 259.92C267.376 260.332 266.879 260.654 266.287 260.886C265.695 261.114 265.03 261.227 264.292 261.227ZM279.086 252.534L277.58 252.96C277.485 252.709 277.346 252.465 277.161 252.229C276.981 251.987 276.735 251.788 276.422 251.632C276.11 251.476 275.71 251.398 275.222 251.398C274.554 251.398 273.998 251.552 273.553 251.859C273.113 252.162 272.892 252.548 272.892 253.017C272.892 253.434 273.044 253.763 273.347 254.004C273.65 254.246 274.123 254.447 274.767 254.608L276.387 255.006C277.362 255.242 278.089 255.605 278.567 256.092C279.045 256.575 279.284 257.198 279.284 257.96C279.284 258.585 279.105 259.144 278.745 259.636C278.39 260.129 277.892 260.517 277.253 260.801C276.614 261.085 275.871 261.227 275.023 261.227C273.91 261.227 272.989 260.986 272.26 260.503C271.531 260.02 271.069 259.314 270.875 258.386L272.466 257.989C272.618 258.576 272.904 259.016 273.326 259.31C273.752 259.603 274.308 259.75 274.995 259.75C275.776 259.75 276.396 259.584 276.855 259.253C277.319 258.917 277.551 258.514 277.551 258.045C277.551 257.667 277.419 257.349 277.154 257.094C276.889 256.833 276.481 256.639 275.932 256.511L274.114 256.085C273.115 255.848 272.381 255.482 271.912 254.984C271.448 254.482 271.216 253.855 271.216 253.102C271.216 252.487 271.389 251.942 271.735 251.469C272.085 250.995 272.561 250.624 273.162 250.354C273.768 250.084 274.455 249.949 275.222 249.949C276.301 249.949 277.149 250.186 277.765 250.659C278.385 251.133 278.825 251.758 279.086 252.534ZM286.552 250.091V251.511H280.898V250.091H286.552ZM282.546 247.477H284.222V257.875C284.222 258.348 284.291 258.704 284.428 258.94C284.57 259.172 284.75 259.329 284.968 259.409C285.191 259.485 285.425 259.523 285.671 259.523C285.856 259.523 286.007 259.513 286.126 259.494C286.244 259.471 286.339 259.452 286.41 259.438L286.751 260.943C286.637 260.986 286.478 261.028 286.275 261.071C286.071 261.118 285.813 261.142 285.501 261.142C285.027 261.142 284.563 261.04 284.109 260.837C283.659 260.633 283.285 260.323 282.987 259.906C282.693 259.49 282.546 258.964 282.546 258.33V247.477ZM289.073 261V250.091H290.692V251.795H290.835C291.062 251.213 291.429 250.761 291.935 250.439C292.442 250.112 293.05 249.949 293.761 249.949C294.48 249.949 295.079 250.112 295.558 250.439C296.04 250.761 296.417 251.213 296.687 251.795H296.8C297.08 251.232 297.499 250.785 298.058 250.453C298.616 250.117 299.286 249.949 300.067 249.949C301.043 249.949 301.841 250.254 302.461 250.865C303.081 251.471 303.391 252.416 303.391 253.699V261H301.715V253.699C301.715 252.894 301.495 252.319 301.055 251.973C300.614 251.627 300.096 251.455 299.499 251.455C298.732 251.455 298.138 251.687 297.717 252.151C297.295 252.61 297.085 253.192 297.085 253.898V261H295.38V253.528C295.38 252.908 295.179 252.409 294.776 252.03C294.374 251.646 293.855 251.455 293.221 251.455C292.785 251.455 292.378 251.571 291.999 251.803C291.625 252.035 291.322 252.357 291.09 252.768C290.863 253.176 290.749 253.647 290.749 254.182V261H289.073ZM309.666 261.256C308.975 261.256 308.348 261.125 307.784 260.865C307.221 260.6 306.773 260.219 306.442 259.722C306.11 259.22 305.945 258.614 305.945 257.903C305.945 257.278 306.068 256.772 306.314 256.384C306.56 255.991 306.889 255.683 307.301 255.46C307.713 255.238 308.168 255.072 308.665 254.963C309.167 254.849 309.671 254.759 310.178 254.693C310.84 254.608 311.378 254.544 311.79 254.501C312.206 254.454 312.509 254.376 312.699 254.267C312.893 254.158 312.99 253.969 312.99 253.699V253.642C312.99 252.941 312.798 252.397 312.415 252.009C312.036 251.62 311.461 251.426 310.689 251.426C309.889 251.426 309.261 251.601 308.807 251.952C308.352 252.302 308.033 252.676 307.848 253.074L306.257 252.506C306.541 251.843 306.92 251.327 307.393 250.957C307.872 250.583 308.393 250.323 308.956 250.176C309.524 250.025 310.083 249.949 310.632 249.949C310.982 249.949 311.385 249.991 311.839 250.077C312.299 250.157 312.741 250.325 313.168 250.581C313.598 250.837 313.956 251.223 314.24 251.739C314.524 252.255 314.666 252.946 314.666 253.812V261H312.99V259.523H312.905C312.791 259.759 312.602 260.013 312.337 260.283C312.071 260.553 311.719 260.782 311.278 260.972C310.838 261.161 310.301 261.256 309.666 261.256ZM309.922 259.75C310.585 259.75 311.143 259.62 311.598 259.359C312.057 259.099 312.403 258.763 312.635 258.351C312.872 257.939 312.99 257.506 312.99 257.051V255.517C312.919 255.602 312.763 255.68 312.521 255.751C312.285 255.818 312.01 255.877 311.697 255.929C311.39 255.976 311.089 256.019 310.795 256.057C310.507 256.09 310.272 256.118 310.092 256.142C309.657 256.199 309.25 256.291 308.871 256.419C308.497 256.542 308.194 256.729 307.962 256.98C307.734 257.226 307.621 257.562 307.621 257.989C307.621 258.571 307.836 259.011 308.267 259.31C308.703 259.603 309.254 259.75 309.922 259.75ZM319.402 254.438V261H317.725V250.091H319.345V251.795H319.487C319.743 251.241 320.131 250.796 320.652 250.46C321.172 250.119 321.845 249.949 322.669 249.949C323.407 249.949 324.054 250.1 324.608 250.403C325.162 250.702 325.592 251.156 325.9 251.767C326.208 252.373 326.362 253.14 326.362 254.068V261H324.686V254.182C324.686 253.325 324.463 252.657 324.018 252.179C323.573 251.696 322.962 251.455 322.186 251.455C321.651 251.455 321.172 251.571 320.751 251.803C320.334 252.035 320.005 252.373 319.764 252.818C319.522 253.263 319.402 253.803 319.402 254.438ZM334.567 245.773L329.879 263.188H328.345L333.033 245.773H334.567ZM341.127 261.227C340.076 261.227 339.17 260.995 338.407 260.531C337.65 260.062 337.065 259.409 336.653 258.571C336.246 257.728 336.042 256.748 336.042 255.631C336.042 254.513 336.246 253.528 336.653 252.676C337.065 251.819 337.638 251.152 338.372 250.673C339.11 250.19 339.972 249.949 340.957 249.949C341.525 249.949 342.086 250.044 342.64 250.233C343.194 250.422 343.699 250.73 344.153 251.156C344.608 251.578 344.97 252.136 345.24 252.832C345.51 253.528 345.645 254.385 345.645 255.403V256.114H337.235V254.665H343.94C343.94 254.049 343.817 253.5 343.571 253.017C343.329 252.534 342.984 252.153 342.534 251.874C342.089 251.594 341.563 251.455 340.957 251.455C340.289 251.455 339.712 251.62 339.224 251.952C338.741 252.278 338.369 252.705 338.109 253.23C337.849 253.756 337.718 254.319 337.718 254.92V255.886C337.718 256.71 337.86 257.409 338.145 257.982C338.433 258.55 338.833 258.983 339.345 259.281C339.856 259.575 340.45 259.722 341.127 259.722C341.568 259.722 341.966 259.66 342.321 259.537C342.681 259.409 342.991 259.22 343.251 258.969C343.511 258.713 343.713 258.396 343.855 258.017L345.474 258.472C345.304 259.021 345.017 259.504 344.615 259.92C344.212 260.332 343.715 260.654 343.123 260.886C342.531 261.114 341.866 261.227 341.127 261.227ZM356.783 250.091L352.749 261H351.044L347.01 250.091H348.828L351.839 258.784H351.953L354.964 250.091H356.783ZM363.178 261.227C362.127 261.227 361.22 260.995 360.458 260.531C359.701 260.062 359.116 259.409 358.704 258.571C358.297 257.728 358.093 256.748 358.093 255.631C358.093 254.513 358.297 253.528 358.704 252.676C359.116 251.819 359.689 251.152 360.423 250.673C361.161 250.19 362.023 249.949 363.008 249.949C363.576 249.949 364.137 250.044 364.691 250.233C365.245 250.422 365.749 250.73 366.204 251.156C366.658 251.578 367.021 252.136 367.29 252.832C367.56 253.528 367.695 254.385 367.695 255.403V256.114H359.286V254.665H365.991C365.991 254.049 365.868 253.5 365.621 253.017C365.38 252.534 365.034 252.153 364.585 251.874C364.139 251.594 363.614 251.455 363.008 251.455C362.34 251.455 361.763 251.62 361.275 251.952C360.792 252.278 360.42 252.705 360.16 253.23C359.899 253.756 359.769 254.319 359.769 254.92V255.886C359.769 256.71 359.911 257.409 360.195 257.982C360.484 258.55 360.884 258.983 361.396 259.281C361.907 259.575 362.501 259.722 363.178 259.722C363.619 259.722 364.016 259.66 364.371 259.537C364.731 259.409 365.041 259.22 365.302 258.969C365.562 258.713 365.763 258.396 365.906 258.017L367.525 258.472C367.354 259.021 367.068 259.504 366.665 259.92C366.263 260.332 365.766 260.654 365.174 260.886C364.582 261.114 363.917 261.227 363.178 261.227ZM370.245 261V250.091H371.864V251.739H371.978C372.177 251.199 372.537 250.761 373.058 250.425C373.578 250.089 374.165 249.92 374.819 249.92C374.942 249.92 375.096 249.923 375.281 249.928C375.465 249.932 375.605 249.939 375.7 249.949V251.653C375.643 251.639 375.513 251.618 375.309 251.589C375.11 251.556 374.899 251.54 374.677 251.54C374.147 251.54 373.673 251.651 373.256 251.874C372.844 252.091 372.518 252.394 372.276 252.783C372.04 253.166 371.921 253.604 371.921 254.097V261H370.245ZM379.098 265.091C378.814 265.091 378.561 265.067 378.338 265.02C378.116 264.977 377.962 264.935 377.876 264.892L378.303 263.415C378.71 263.519 379.07 263.557 379.382 263.528C379.695 263.5 379.972 263.36 380.213 263.109C380.459 262.863 380.684 262.463 380.888 261.909L381.2 261.057L377.166 250.091H378.984L381.996 258.784H382.109L385.121 250.091H386.939L382.308 262.591C382.1 263.154 381.842 263.621 381.534 263.99C381.226 264.364 380.869 264.641 380.462 264.821C380.059 265.001 379.605 265.091 379.098 265.091ZM389.379 261V246.455H391.055V251.824H391.197C391.32 251.634 391.49 251.393 391.708 251.099C391.931 250.801 392.248 250.536 392.66 250.304C393.076 250.067 393.64 249.949 394.35 249.949C395.269 249.949 396.078 250.179 396.779 250.638C397.48 251.097 398.027 251.748 398.42 252.591C398.813 253.434 399.009 254.428 399.009 255.574C399.009 256.729 398.813 257.731 398.42 258.578C398.027 259.421 397.482 260.074 396.786 260.538C396.09 260.998 395.288 261.227 394.379 261.227C393.678 261.227 393.117 261.111 392.695 260.879C392.274 260.643 391.95 260.375 391.722 260.077C391.495 259.774 391.32 259.523 391.197 259.324H390.998V261H389.379ZM391.026 255.545C391.026 256.369 391.147 257.096 391.388 257.726C391.63 258.351 391.983 258.841 392.447 259.196C392.911 259.546 393.479 259.722 394.151 259.722C394.852 259.722 395.437 259.537 395.906 259.168C396.379 258.794 396.734 258.292 396.971 257.662C397.212 257.027 397.333 256.322 397.333 255.545C397.333 254.778 397.215 254.087 396.978 253.472C396.746 252.851 396.393 252.361 395.92 252.001C395.451 251.637 394.862 251.455 394.151 251.455C393.469 251.455 392.897 251.627 392.433 251.973C391.969 252.314 391.618 252.792 391.381 253.408C391.145 254.018 391.026 254.731 391.026 255.545ZM406.005 261.227C405.02 261.227 404.156 260.993 403.413 260.524C402.674 260.055 402.096 259.4 401.68 258.557C401.268 257.714 401.062 256.729 401.062 255.602C401.062 254.466 401.268 253.474 401.68 252.626C402.096 251.779 402.674 251.121 403.413 250.652C404.156 250.183 405.02 249.949 406.005 249.949C406.99 249.949 407.852 250.183 408.59 250.652C409.334 251.121 409.911 251.779 410.323 252.626C410.74 253.474 410.948 254.466 410.948 255.602C410.948 256.729 410.74 257.714 410.323 258.557C409.911 259.4 409.334 260.055 408.59 260.524C407.852 260.993 406.99 261.227 406.005 261.227ZM406.005 259.722C406.753 259.722 407.369 259.53 407.852 259.146C408.335 258.763 408.692 258.259 408.924 257.634C409.156 257.009 409.272 256.331 409.272 255.602C409.272 254.873 409.156 254.194 408.924 253.564C408.692 252.934 408.335 252.425 407.852 252.037C407.369 251.649 406.753 251.455 406.005 251.455C405.257 251.455 404.641 251.649 404.158 252.037C403.675 252.425 403.318 252.934 403.086 253.564C402.854 254.194 402.738 254.873 402.738 255.602C402.738 256.331 402.854 257.009 403.086 257.634C403.318 258.259 403.675 258.763 404.158 259.146C404.641 259.53 405.257 259.722 406.005 259.722ZM417.626 261.227C416.717 261.227 415.914 260.998 415.218 260.538C414.522 260.074 413.978 259.421 413.585 258.578C413.192 257.731 412.995 256.729 412.995 255.574C412.995 254.428 413.192 253.434 413.585 252.591C413.978 251.748 414.525 251.097 415.225 250.638C415.926 250.179 416.736 249.949 417.654 249.949C418.365 249.949 418.926 250.067 419.338 250.304C419.754 250.536 420.072 250.801 420.289 251.099C420.512 251.393 420.685 251.634 420.808 251.824H420.95V246.455H422.626V261H421.007V259.324H420.808C420.685 259.523 420.51 259.774 420.282 260.077C420.055 260.375 419.731 260.643 419.309 260.879C418.888 261.111 418.327 261.227 417.626 261.227ZM417.853 259.722C418.526 259.722 419.094 259.546 419.558 259.196C420.022 258.841 420.375 258.351 420.616 257.726C420.858 257.096 420.978 256.369 420.978 255.545C420.978 254.731 420.86 254.018 420.623 253.408C420.386 252.792 420.036 252.314 419.572 251.973C419.108 251.627 418.535 251.455 417.853 251.455C417.143 251.455 416.551 251.637 416.078 252.001C415.609 252.361 415.256 252.851 415.02 253.472C414.788 254.087 414.672 254.778 414.672 255.545C414.672 256.322 414.79 257.027 415.027 257.662C415.268 258.292 415.623 258.794 416.092 259.168C416.565 259.537 417.153 259.722 417.853 259.722ZM427.008 265.091C426.724 265.091 426.471 265.067 426.248 265.02C426.026 264.977 425.872 264.935 425.787 264.892L426.213 263.415C426.62 263.519 426.98 263.557 427.292 263.528C427.605 263.5 427.882 263.36 428.123 263.109C428.369 262.863 428.594 262.463 428.798 261.909L429.11 261.057L425.076 250.091H426.895L429.906 258.784H430.02L433.031 250.091H434.849L430.218 262.591C430.01 263.154 429.752 263.621 429.444 263.99C429.136 264.364 428.779 264.641 428.372 264.821C427.969 265.001 427.515 265.091 427.008 265.091ZM443.311 253.983V255.545H436.948V253.983H443.311ZM448.732 261L445.408 250.091H447.17L449.528 258.443H449.641L451.971 250.091H453.761L456.062 258.415H456.175L458.533 250.091H460.295L456.971 261H455.323L452.937 252.619H452.766L450.38 261H448.732ZM465.721 261.256C465.03 261.256 464.402 261.125 463.839 260.865C463.275 260.6 462.828 260.219 462.496 259.722C462.165 259.22 461.999 258.614 461.999 257.903C461.999 257.278 462.122 256.772 462.369 256.384C462.615 255.991 462.944 255.683 463.356 255.46C463.768 255.238 464.222 255.072 464.719 254.963C465.221 254.849 465.726 254.759 466.232 254.693C466.895 254.608 467.433 254.544 467.844 254.501C468.261 254.454 468.564 254.376 468.754 254.267C468.948 254.158 469.045 253.969 469.045 253.699V253.642C469.045 252.941 468.853 252.397 468.469 252.009C468.091 251.62 467.515 251.426 466.744 251.426C465.943 251.426 465.316 251.601 464.862 251.952C464.407 252.302 464.087 252.676 463.903 253.074L462.312 252.506C462.596 251.843 462.975 251.327 463.448 250.957C463.926 250.583 464.447 250.323 465.011 250.176C465.579 250.025 466.138 249.949 466.687 249.949C467.037 249.949 467.44 249.991 467.894 250.077C468.353 250.157 468.796 250.325 469.222 250.581C469.653 250.837 470.011 251.223 470.295 251.739C470.579 252.255 470.721 252.946 470.721 253.812V261H469.045V259.523H468.96C468.846 259.759 468.656 260.013 468.391 260.283C468.126 260.553 467.773 260.782 467.333 260.972C466.893 261.161 466.355 261.256 465.721 261.256ZM465.977 259.75C466.639 259.75 467.198 259.62 467.653 259.359C468.112 259.099 468.458 258.763 468.69 258.351C468.926 257.939 469.045 257.506 469.045 257.051V255.517C468.974 255.602 468.817 255.68 468.576 255.751C468.339 255.818 468.065 255.877 467.752 255.929C467.444 255.976 467.144 256.019 466.85 256.057C466.561 256.09 466.327 256.118 466.147 256.142C465.711 256.199 465.304 256.291 464.925 256.419C464.551 256.542 464.248 256.729 464.016 256.98C463.789 257.226 463.675 257.562 463.675 257.989C463.675 258.571 463.891 259.011 464.322 259.31C464.757 259.603 465.309 259.75 465.977 259.75ZM475.456 254.438V261H473.78V250.091H475.4V251.795H475.542C475.797 251.241 476.185 250.796 476.706 250.46C477.227 250.119 477.9 249.949 478.723 249.949C479.462 249.949 480.108 250.1 480.662 250.403C481.216 250.702 481.647 251.156 481.955 251.767C482.263 252.373 482.417 253.14 482.417 254.068V261H480.74V254.182C480.74 253.325 480.518 252.657 480.073 252.179C479.628 251.696 479.017 251.455 478.24 251.455C477.705 251.455 477.227 251.571 476.806 251.803C476.389 252.035 476.06 252.373 475.819 252.818C475.577 253.263 475.456 253.803 475.456 254.438ZM490.224 250.091V251.511H484.57V250.091H490.224ZM486.218 247.477H487.894V257.875C487.894 258.348 487.963 258.704 488.1 258.94C488.242 259.172 488.422 259.329 488.64 259.409C488.862 259.485 489.097 259.523 489.343 259.523C489.528 259.523 489.679 259.513 489.798 259.494C489.916 259.471 490.011 259.452 490.082 259.438L490.423 260.943C490.309 260.986 490.15 261.028 489.947 261.071C489.743 261.118 489.485 261.142 489.173 261.142C488.699 261.142 488.235 261.04 487.781 260.837C487.331 260.633 486.957 260.323 486.658 259.906C486.365 259.49 486.218 258.964 486.218 258.33V247.477ZM500.277 252.534L498.771 252.96C498.677 252.709 498.537 252.465 498.352 252.229C498.172 251.987 497.926 251.788 497.614 251.632C497.301 251.476 496.901 251.398 496.413 251.398C495.746 251.398 495.189 251.552 494.744 251.859C494.304 252.162 494.084 252.548 494.084 253.017C494.084 253.434 494.235 253.763 494.538 254.004C494.841 254.246 495.315 254.447 495.959 254.608L497.578 255.006C498.554 255.242 499.28 255.605 499.759 256.092C500.237 256.575 500.476 257.198 500.476 257.96C500.476 258.585 500.296 259.144 499.936 259.636C499.581 260.129 499.084 260.517 498.445 260.801C497.805 261.085 497.062 261.227 496.214 261.227C495.102 261.227 494.181 260.986 493.452 260.503C492.723 260.02 492.261 259.314 492.067 258.386L493.658 257.989C493.809 258.576 494.096 259.016 494.517 259.31C494.943 259.603 495.5 259.75 496.186 259.75C496.967 259.75 497.588 259.584 498.047 259.253C498.511 258.917 498.743 258.514 498.743 258.045C498.743 257.667 498.61 257.349 498.345 257.094C498.08 256.833 497.673 256.639 497.124 256.511L495.305 256.085C494.306 255.848 493.572 255.482 493.104 254.984C492.64 254.482 492.408 253.855 492.408 253.102C492.408 252.487 492.58 251.942 492.926 251.469C493.277 250.995 493.752 250.624 494.354 250.354C494.96 250.084 495.646 249.949 496.413 249.949C497.493 249.949 498.34 250.186 498.956 250.659C499.576 251.133 500.017 251.758 500.277 252.534ZM509.249 253.983V255.545H502.885V253.983H509.249ZM516.942 250.091V251.511H511.289V250.091H516.942ZM512.937 247.477H514.613V257.875C514.613 258.348 514.682 258.704 514.819 258.94C514.961 259.172 515.141 259.329 515.359 259.409C515.581 259.485 515.816 259.523 516.062 259.523C516.246 259.523 516.398 259.513 516.516 259.494C516.635 259.471 516.729 259.452 516.8 259.438L517.141 260.943C517.028 260.986 516.869 261.028 516.665 261.071C516.462 261.118 516.204 261.142 515.891 261.142C515.418 261.142 514.954 261.04 514.499 260.837C514.049 260.633 513.675 260.323 513.377 259.906C513.084 259.49 512.937 258.964 512.937 258.33V247.477ZM523.778 261.227C522.794 261.227 521.929 260.993 521.186 260.524C520.447 260.055 519.87 259.4 519.453 258.557C519.041 257.714 518.835 256.729 518.835 255.602C518.835 254.466 519.041 253.474 519.453 252.626C519.87 251.779 520.447 251.121 521.186 250.652C521.929 250.183 522.794 249.949 523.778 249.949C524.763 249.949 525.625 250.183 526.364 250.652C527.107 251.121 527.685 251.779 528.097 252.626C528.513 253.474 528.722 254.466 528.722 255.602C528.722 256.729 528.513 257.714 528.097 258.557C527.685 259.4 527.107 260.055 526.364 260.524C525.625 260.993 524.763 261.227 523.778 261.227ZM523.778 259.722C524.527 259.722 525.142 259.53 525.625 259.146C526.108 258.763 526.465 258.259 526.697 257.634C526.929 257.009 527.045 256.331 527.045 255.602C527.045 254.873 526.929 254.194 526.697 253.564C526.465 252.934 526.108 252.425 525.625 252.037C525.142 251.649 524.527 251.455 523.778 251.455C523.03 251.455 522.415 251.649 521.932 252.037C521.449 252.425 521.091 252.934 520.859 253.564C520.627 254.194 520.511 254.873 520.511 255.602C520.511 256.331 520.627 257.009 520.859 257.634C521.091 258.259 521.449 258.763 521.932 259.146C522.415 259.53 523.03 259.722 523.778 259.722ZM537.53 253.983V255.545H531.167V253.983H537.53ZM540.479 261V250.091H542.099V251.739H542.212C542.411 251.199 542.771 250.761 543.292 250.425C543.813 250.089 544.4 249.92 545.053 249.92C545.176 249.92 545.33 249.923 545.515 249.928C545.7 249.932 545.839 249.939 545.934 249.949V251.653C545.877 251.639 545.747 251.618 545.543 251.589C545.344 251.556 545.134 251.54 544.911 251.54C544.381 251.54 543.907 251.651 543.491 251.874C543.079 252.091 542.752 252.394 542.511 252.783C542.274 253.166 542.156 253.604 542.156 254.097V261H540.479ZM554.796 256.54V250.091H556.472V261H554.796V259.153H554.682C554.426 259.707 554.029 260.179 553.489 260.567C552.949 260.95 552.267 261.142 551.444 261.142C550.762 261.142 550.156 260.993 549.625 260.695C549.095 260.392 548.678 259.937 548.375 259.331C548.072 258.72 547.921 257.951 547.921 257.023V250.091H549.597V256.909C549.597 257.705 549.819 258.339 550.265 258.812C550.714 259.286 551.287 259.523 551.983 259.523C552.4 259.523 552.824 259.416 553.255 259.203C553.69 258.99 554.055 258.663 554.348 258.223C554.647 257.783 554.796 257.222 554.796 256.54ZM561.218 246.455V261H559.542V246.455H561.218ZM568.862 261.227C567.811 261.227 566.904 260.995 566.142 260.531C565.384 260.062 564.799 259.409 564.387 258.571C563.98 257.728 563.777 256.748 563.777 255.631C563.777 254.513 563.98 253.528 564.387 252.676C564.799 251.819 565.372 251.152 566.106 250.673C566.845 250.19 567.707 249.949 568.691 249.949C569.26 249.949 569.821 250.044 570.375 250.233C570.929 250.422 571.433 250.73 571.887 251.156C572.342 251.578 572.704 252.136 572.974 252.832C573.244 253.528 573.379 254.385 573.379 255.403V256.114H564.97V254.665H571.674C571.674 254.049 571.551 253.5 571.305 253.017C571.064 252.534 570.718 252.153 570.268 251.874C569.823 251.594 569.297 251.455 568.691 251.455C568.024 251.455 567.446 251.62 566.958 251.952C566.475 252.278 566.104 252.705 565.843 253.23C565.583 253.756 565.453 254.319 565.453 254.92V255.886C565.453 256.71 565.595 257.409 565.879 257.982C566.168 258.55 566.568 258.983 567.079 259.281C567.591 259.575 568.185 259.722 568.862 259.722C569.302 259.722 569.7 259.66 570.055 259.537C570.415 259.409 570.725 259.22 570.985 258.969C571.246 258.713 571.447 258.396 571.589 258.017L573.208 258.472C573.038 259.021 572.752 259.504 572.349 259.92C571.947 260.332 571.449 260.654 570.858 260.886C570.266 261.114 569.6 261.227 568.862 261.227ZM582.179 253.983V255.545H575.815V253.983H582.179ZM589.872 250.091V251.511H584.219V250.091H589.872ZM585.866 247.477H587.543V257.875C587.543 258.348 587.611 258.704 587.749 258.94C587.891 259.172 588.071 259.329 588.288 259.409C588.511 259.485 588.745 259.523 588.991 259.523C589.176 259.523 589.328 259.513 589.446 259.494C589.564 259.471 589.659 259.452 589.73 259.438L590.071 260.943C589.957 260.986 589.799 261.028 589.595 261.071C589.392 261.118 589.134 261.142 588.821 261.142C588.348 261.142 587.884 261.04 587.429 260.837C586.979 260.633 586.605 260.323 586.307 259.906C586.013 259.49 585.866 258.964 585.866 258.33V247.477ZM594.304 254.438V261H592.628V246.455H594.304V251.795H594.446C594.702 251.232 595.085 250.785 595.597 250.453C596.113 250.117 596.799 249.949 597.656 249.949C598.4 249.949 599.051 250.098 599.609 250.396C600.168 250.69 600.601 251.142 600.909 251.753C601.222 252.359 601.378 253.131 601.378 254.068V261H599.702V254.182C599.702 253.315 599.477 252.645 599.027 252.172C598.582 251.694 597.964 251.455 597.173 251.455C596.624 251.455 596.132 251.571 595.696 251.803C595.265 252.035 594.924 252.373 594.673 252.818C594.427 253.263 594.304 253.803 594.304 254.438ZM609.018 261.227C607.967 261.227 607.06 260.995 606.298 260.531C605.54 260.062 604.956 259.409 604.544 258.571C604.136 257.728 603.933 256.748 603.933 255.631C603.933 254.513 604.136 253.528 604.544 252.676C604.956 251.819 605.529 251.152 606.262 250.673C607.001 250.19 607.863 249.949 608.848 249.949C609.416 249.949 609.977 250.044 610.531 250.233C611.085 250.422 611.589 250.73 612.044 251.156C612.498 251.578 612.86 252.136 613.13 252.832C613.4 253.528 613.535 254.385 613.535 255.403V256.114H605.126V254.665H611.831C611.831 254.049 611.708 253.5 611.461 253.017C611.22 252.534 610.874 252.153 610.424 251.874C609.979 251.594 609.454 251.455 608.848 251.455C608.18 251.455 607.602 251.62 607.115 251.952C606.632 252.278 606.26 252.705 606 253.23C605.739 253.756 605.609 254.319 605.609 254.92V255.886C605.609 256.71 605.751 257.409 606.035 257.982C606.324 258.55 606.724 258.983 607.235 259.281C607.747 259.575 608.341 259.722 609.018 259.722C609.458 259.722 609.856 259.66 610.211 259.537C610.571 259.409 610.881 259.22 611.142 258.969C611.402 258.713 611.603 258.396 611.745 258.017L613.365 258.472C613.194 259.021 612.908 259.504 612.505 259.92C612.103 260.332 611.606 260.654 611.014 260.886C610.422 261.114 609.757 261.227 609.018 261.227ZM622.335 253.983V255.545H615.971V253.983H622.335ZM627.756 261L624.432 250.091H626.193L628.551 258.443H628.665L630.994 250.091H632.784L635.085 258.415H635.199L637.557 250.091H639.318L635.994 261H634.347L631.96 252.619H631.79L629.403 261H627.756ZM645.595 261.227C644.61 261.227 643.746 260.993 643.002 260.524C642.264 260.055 641.686 259.4 641.27 258.557C640.858 257.714 640.652 256.729 640.652 255.602C640.652 254.466 640.858 253.474 641.27 252.626C641.686 251.779 642.264 251.121 643.002 250.652C643.746 250.183 644.61 249.949 645.595 249.949C646.58 249.949 647.441 250.183 648.18 250.652C648.923 251.121 649.501 251.779 649.913 252.626C650.33 253.474 650.538 254.466 650.538 255.602C650.538 256.729 650.33 257.714 649.913 258.557C649.501 259.4 648.923 260.055 648.18 260.524C647.441 260.993 646.58 261.227 645.595 261.227ZM645.595 259.722C646.343 259.722 646.958 259.53 647.441 259.146C647.924 258.763 648.282 258.259 648.514 257.634C648.746 257.009 648.862 256.331 648.862 255.602C648.862 254.873 648.746 254.194 648.514 253.564C648.282 252.934 647.924 252.425 647.441 252.037C646.958 251.649 646.343 251.455 645.595 251.455C644.847 251.455 644.231 251.649 643.748 252.037C643.265 252.425 642.908 252.934 642.676 253.564C642.444 254.194 642.328 254.873 642.328 255.602C642.328 256.331 642.444 257.009 642.676 257.634C642.908 258.259 643.265 258.763 643.748 259.146C644.231 259.53 644.847 259.722 645.595 259.722ZM653.097 261V250.091H654.716V251.739H654.83C655.028 251.199 655.388 250.761 655.909 250.425C656.43 250.089 657.017 249.92 657.67 249.92C657.794 249.92 657.947 249.923 658.132 249.928C658.317 249.932 658.456 249.939 658.551 249.949V251.653C658.494 251.639 658.364 251.618 658.161 251.589C657.962 251.556 657.751 251.54 657.528 251.54C656.998 251.54 656.525 251.651 656.108 251.874C655.696 252.091 655.369 252.394 655.128 252.783C654.891 253.166 654.773 253.604 654.773 254.097V261H653.097ZM662.214 246.455V261H660.538V246.455H662.214ZM669.403 261.227C668.494 261.227 667.692 260.998 666.996 260.538C666.3 260.074 665.755 259.421 665.362 258.578C664.969 257.731 664.773 256.729 664.773 255.574C664.773 254.428 664.969 253.434 665.362 252.591C665.755 251.748 666.302 251.097 667.003 250.638C667.704 250.179 668.513 249.949 669.432 249.949C670.142 249.949 670.703 250.067 671.115 250.304C671.532 250.536 671.849 250.801 672.067 251.099C672.289 251.393 672.462 251.634 672.585 251.824H672.727V246.455H674.403V261H672.784V259.324H672.585C672.462 259.523 672.287 259.774 672.06 260.077C671.832 260.375 671.508 260.643 671.087 260.879C670.665 261.111 670.104 261.227 669.403 261.227ZM669.631 259.722C670.303 259.722 670.871 259.546 671.335 259.196C671.799 258.841 672.152 258.351 672.393 257.726C672.635 257.096 672.756 256.369 672.756 255.545C672.756 254.731 672.637 254.018 672.401 253.408C672.164 252.792 671.813 252.314 671.349 251.973C670.885 251.627 670.313 251.455 669.631 251.455C668.92 251.455 668.329 251.637 667.855 252.001C667.386 252.361 667.034 252.851 666.797 253.472C666.565 254.087 666.449 254.778 666.449 255.545C666.449 256.322 666.567 257.027 666.804 257.662C667.045 258.292 667.401 258.794 667.869 259.168C668.343 259.537 668.93 259.722 669.631 259.722Z" fill="black"/>
</svg>
